<svg xmlns="http://www.w3.org/2000/svg" viewBox="0 0 80 40">
  <rect width="80" height="40" rx="4" fill="#0a3b78"/>
  <path fill="#fff" d="M18 28l3.2-16h5.1l-3.2 16H18zm13.2 0-2.5-16h4.8l.7 8.8 5.2-8.8h5l-8.2 12.8L41 28h-3.8zm13.3-16h5.4l1.9 6.7 2.3-6.7h5.4l-4.5 16h-4.7l1.6-5.6-1.9-6.6-4.2 12.2h-4.7l4.4-16zm20.9 2.7c-1.3 0-2.3.3-2.9.9-.6.6-.9 1.4-.9 2.5 0 1.1.3 1.9.8 2.5.6.6 1.5 1 2.8 1 1.1 0 2.1-.2 2.9-.7v3.3c-.9.4-2.1.7-3.7.7-3.4 0-5.9-2.1-5.9-5.7 0-1.6.6-3 1.7-4 1.2-1.1 2.9-1.7 5.3-1.7 1.6 0 2.9.3 3.9.7l-.8 3c-.7-.4-1.6-.7-3.2-.7z"/>
  <path fill="#fff" d="M65.6 31.5H25.2c-3.2 0-5.2-2.2-5.2-4.9v-.6h4.4v.4c0 .9.5 1.4 1.5 1.4h38.4c1 0 1.5-.5 1.5-1.4v-.4h4.4v.6c0 2.7-2.1 4.9-4.6 4.9z" opacity=".5"/>
</svg>

