<svg xmlns="http://www.w3.org/2000/svg" viewBox="0 0 80 40">
  <rect width="80" height="40" rx="6" fill="#000"/>
  <path fill="#fff" d="M28.6 21.3c-.1-3 2.4-4.6 2.5-4.7-1.4-2-3.6-2.3-4.4-2.4-1.9-.2-3.7 1.1-4.6 1.1-.9 0-2.4-1.1-3.9-1-2 0-3.9 1.2-5 3-2.2 3.7-.6 9.1 1.5 12.1 1 1.4 2.1 2.9 3.6 2.8 1.4-.1 2-.9 3.7-.9 1.6 0 2.2.9 3.7.8 1.5 0 2.5-1.4 3.4-2.7 1.1-1.6 1.5-3.1 1.5-3.1-.1 0-2.9-1.1-3-4zm-2.8-8.4c.8-1 1.4-2.5 1.2-4-1.2.1-2.7.8-3.6 1.8-.8.9-1.5 2.4-1.3 3.8 1.4.1 2.8-.7 3.7-1.6zm17.2 15.7h-3.2l-.9-2.7h-4.5l-.9 2.7h-3l4.6-13.1h3.3l4.6 13.1zm-5.1-5.1-1.5-4.6-1.5 4.6h3zm11.3.5c0-1.8 1-3.1 2.9-3.9l-.1-.3c-.6-.9-.8-1.4-.8-2.6 0-1.1.3-2.2 1-3 .7-.8 1.9-1.3 3.1-1.3h4.5v2.5h-4c-.4 0-.9.2-1.1.5-.3.3-.4.6-.4 1.3 0 .4.1.8.4 1.2.2.4.8 1 1.6 1h3.5v2.4h-3.4c-2.1 0-3.3.9-3.3 2.4 0 1.5 1.2 2.4 3.2 2.4h3.5v2.5h-3.4c-3.1 0-5.2-1.7-5.2-4.4zm16.6 4.4h-3.1V15.5h3v9.5l6.2-9.5h3.2v13.1h-3v-9.5l-6.3 9.5z"/>
</svg>

