<svg xmlns="http://www.w3.org/2000/svg" viewBox="0 0 80 40">
  <rect width="80" height="40" fill="#1a1f71" rx="4" ry="4"/>
  <path fill="#fff" d="M20 29l3.4-18h5.2l-3.4 18H20zm23.5-18c-1.9 0-3.3.4-4.1 2l-7.7 16h6l1-2.7h6.6l.6 2.7h5.3L47.5 11h-4zM41.2 20l2.2-5.6 1.2 5.6h-3.4zm20.3 2.2a4.4 4.4 0 0 1-2.3-.6l.3-3.3s1.4.7 2.2.7c.8 0 1.2-.3 1.2-.8 0-.5-.3-.8-1.3-1.2-3.2-1.3-3.7-2.2-3.6-3.8C58.9 11.7 60.8 11 63 11c1.9 0 3.1.4 3.1.4l-.3 2.9s-1.3-.6-2.1-.6c-.7 0-1.1.3-1.1.8 0 .4.4.7 1.5 1.2 3.1 1.3 3.5 2 3.4 3.8-.1 2.7-2.1 3.7-4.3 3.7z"/>
</svg>

